<mxfile host="app.diagrams.net" modified="2023-12-29T21:32:08.466Z" agent="Mozilla/5.0 (Windows NT 10.0; Win64; x64) AppleWebKit/537.36 (KHTML, like Gecko) Chrome/120.0.0.0 Safari/537.36" etag="P1URdz0tcO4Ux-w3tO8n" version="22.1.16" type="device">
  <diagram name="Sequence" id="2YBvvXClWsGukQMizWep">
    <mxGraphModel dx="780" dy="464" grid="1" gridSize="10" guides="1" tooltips="1" connect="1" arrows="1" fold="1" page="1" pageScale="1" pageWidth="850" pageHeight="1100" background="#ffffff" math="0" shadow="0">
      <root>
        <mxCell id="0" />
        <mxCell id="1" parent="0" />
        <mxCell id="ZwXYjoXHc6uC35f45LxF-9" value="&lt;font style=&quot;font-size: 10px;&quot;&gt;&amp;nbsp; if recognized&lt;/font&gt;&lt;div&gt;&lt;font style=&quot;font-size: 10px;&quot;&gt;&lt;br&gt;&lt;/font&gt;&lt;/div&gt;&lt;div&gt;&lt;font style=&quot;font-size: 10px;&quot;&gt;&lt;br&gt;&lt;/font&gt;&lt;/div&gt;&lt;div&gt;&lt;span style=&quot;font-size: 10px;&quot;&gt;&amp;nbsp; if not recognized&lt;/span&gt;&lt;/div&gt;" style="rounded=1;whiteSpace=wrap;html=1;sketch=1;hachureGap=4;jiggle=2;curveFitting=1;fontFamily=Architects Daughter;fontSource=https%3A%2F%2Ffonts.googleapis.com%2Fcss%3Ffamily%3DArchitects%2BDaughter;fontSize=9;align=left;verticalAlign=top;labelBackgroundColor=none;" vertex="1" parent="1">
          <mxGeometry x="100" y="220" width="320" height="90" as="geometry" />
        </mxCell>
        <mxCell id="aM9ryv3xv72pqoxQDRHE-1" value="Administrator" style="shape=umlLifeline;perimeter=lifelinePerimeter;whiteSpace=wrap;html=1;container=0;dropTarget=0;collapsible=0;recursiveResize=0;outlineConnect=0;portConstraint=eastwest;newEdgeStyle={&quot;edgeStyle&quot;:&quot;elbowEdgeStyle&quot;,&quot;elbow&quot;:&quot;vertical&quot;,&quot;curved&quot;:0,&quot;rounded&quot;:0};rounded=1;labelBackgroundColor=none;" parent="1" vertex="1">
          <mxGeometry x="40" y="40" width="100" height="390" as="geometry" />
        </mxCell>
        <mxCell id="aM9ryv3xv72pqoxQDRHE-2" value="" style="html=1;points=[];perimeter=orthogonalPerimeter;outlineConnect=0;targetShapes=umlLifeline;portConstraint=eastwest;newEdgeStyle={&quot;edgeStyle&quot;:&quot;elbowEdgeStyle&quot;,&quot;elbow&quot;:&quot;vertical&quot;,&quot;curved&quot;:0,&quot;rounded&quot;:0};rounded=1;labelBackgroundColor=none;" parent="aM9ryv3xv72pqoxQDRHE-1" vertex="1">
          <mxGeometry x="45" y="70" width="10" height="250" as="geometry" />
        </mxCell>
        <mxCell id="aM9ryv3xv72pqoxQDRHE-4" value="" style="html=1;points=[];perimeter=orthogonalPerimeter;outlineConnect=0;targetShapes=umlLifeline;portConstraint=eastwest;newEdgeStyle={&quot;edgeStyle&quot;:&quot;elbowEdgeStyle&quot;,&quot;elbow&quot;:&quot;vertical&quot;,&quot;curved&quot;:0,&quot;rounded&quot;:0};rounded=1;labelBackgroundColor=none;" parent="aM9ryv3xv72pqoxQDRHE-1" vertex="1">
          <mxGeometry x="50" y="120" width="10" height="80" as="geometry" />
        </mxCell>
        <mxCell id="aM9ryv3xv72pqoxQDRHE-5" value="Login Service" style="shape=umlLifeline;perimeter=lifelinePerimeter;whiteSpace=wrap;html=1;container=0;dropTarget=0;collapsible=0;recursiveResize=0;outlineConnect=0;portConstraint=eastwest;newEdgeStyle={&quot;edgeStyle&quot;:&quot;elbowEdgeStyle&quot;,&quot;elbow&quot;:&quot;vertical&quot;,&quot;curved&quot;:0,&quot;rounded&quot;:0};rounded=1;labelBackgroundColor=none;" parent="1" vertex="1">
          <mxGeometry x="220" y="40" width="100" height="390" as="geometry" />
        </mxCell>
        <mxCell id="aM9ryv3xv72pqoxQDRHE-6" value="" style="html=1;points=[];perimeter=orthogonalPerimeter;outlineConnect=0;targetShapes=umlLifeline;portConstraint=eastwest;newEdgeStyle={&quot;edgeStyle&quot;:&quot;elbowEdgeStyle&quot;,&quot;elbow&quot;:&quot;vertical&quot;,&quot;curved&quot;:0,&quot;rounded&quot;:0};rounded=1;labelBackgroundColor=none;" parent="aM9ryv3xv72pqoxQDRHE-5" vertex="1">
          <mxGeometry x="45" y="80" width="10" height="240" as="geometry" />
        </mxCell>
        <mxCell id="aM9ryv3xv72pqoxQDRHE-7" value="Attempt login" style="html=1;verticalAlign=bottom;endArrow=block;edgeStyle=elbowEdgeStyle;elbow=vertical;curved=0;rounded=1;labelBackgroundColor=none;fontColor=default;" parent="1" source="aM9ryv3xv72pqoxQDRHE-2" target="aM9ryv3xv72pqoxQDRHE-6" edge="1">
          <mxGeometry relative="1" as="geometry">
            <mxPoint x="195" y="130" as="sourcePoint" />
            <Array as="points">
              <mxPoint x="180" y="120" />
            </Array>
          </mxGeometry>
        </mxCell>
        <mxCell id="aM9ryv3xv72pqoxQDRHE-8" value="Attendance marked" style="html=1;verticalAlign=bottom;endArrow=open;dashed=1;endSize=8;edgeStyle=elbowEdgeStyle;elbow=vertical;curved=0;rounded=1;labelBackgroundColor=none;fontColor=default;" parent="1" edge="1">
          <mxGeometry relative="1" as="geometry">
            <mxPoint x="95" y="256" as="targetPoint" />
            <Array as="points">
              <mxPoint x="190" y="256" />
            </Array>
            <mxPoint x="429.5" y="256" as="sourcePoint" />
          </mxGeometry>
        </mxCell>
        <mxCell id="aM9ryv3xv72pqoxQDRHE-9" value="Login Success" style="html=1;verticalAlign=bottom;endArrow=block;edgeStyle=elbowEdgeStyle;elbow=vertical;curved=0;rounded=1;labelBackgroundColor=none;fontColor=default;" parent="1" source="aM9ryv3xv72pqoxQDRHE-6" target="aM9ryv3xv72pqoxQDRHE-4" edge="1">
          <mxGeometry relative="1" as="geometry">
            <mxPoint x="175" y="160" as="sourcePoint" />
            <Array as="points">
              <mxPoint x="190" y="160" />
            </Array>
          </mxGeometry>
        </mxCell>
        <mxCell id="aM9ryv3xv72pqoxQDRHE-10" value="Initiate Mark Attendance" style="html=1;verticalAlign=bottom;endArrow=open;dashed=1;endSize=8;edgeStyle=elbowEdgeStyle;elbow=vertical;curved=0;rounded=1;labelBackgroundColor=none;fontColor=default;" parent="1" source="aM9ryv3xv72pqoxQDRHE-4" target="ZwXYjoXHc6uC35f45LxF-1" edge="1">
          <mxGeometry relative="1" as="geometry">
            <mxPoint x="175" y="235" as="targetPoint" />
            <Array as="points">
              <mxPoint x="190" y="190" />
            </Array>
          </mxGeometry>
        </mxCell>
        <mxCell id="ZwXYjoXHc6uC35f45LxF-1" value="AttendanceSystem" style="shape=umlLifeline;perimeter=lifelinePerimeter;whiteSpace=wrap;html=1;container=0;dropTarget=0;collapsible=0;recursiveResize=0;outlineConnect=0;portConstraint=eastwest;newEdgeStyle={&quot;edgeStyle&quot;:&quot;elbowEdgeStyle&quot;,&quot;elbow&quot;:&quot;vertical&quot;,&quot;curved&quot;:0,&quot;rounded&quot;:0};rounded=1;labelBackgroundColor=none;" vertex="1" parent="1">
          <mxGeometry x="380" y="40" width="100" height="390" as="geometry" />
        </mxCell>
        <mxCell id="ZwXYjoXHc6uC35f45LxF-2" value="" style="html=1;points=[];perimeter=orthogonalPerimeter;outlineConnect=0;targetShapes=umlLifeline;portConstraint=eastwest;newEdgeStyle={&quot;edgeStyle&quot;:&quot;elbowEdgeStyle&quot;,&quot;elbow&quot;:&quot;vertical&quot;,&quot;curved&quot;:0,&quot;rounded&quot;:0};rounded=1;labelBackgroundColor=none;" vertex="1" parent="ZwXYjoXHc6uC35f45LxF-1">
          <mxGeometry x="45" y="80" width="10" height="270" as="geometry" />
        </mxCell>
        <mxCell id="ZwXYjoXHc6uC35f45LxF-3" value="Facia Recognition&lt;div&gt;Device&lt;/div&gt;" style="shape=umlLifeline;perimeter=lifelinePerimeter;whiteSpace=wrap;html=1;container=0;dropTarget=0;collapsible=0;recursiveResize=0;outlineConnect=0;portConstraint=eastwest;newEdgeStyle={&quot;edgeStyle&quot;:&quot;elbowEdgeStyle&quot;,&quot;elbow&quot;:&quot;vertical&quot;,&quot;curved&quot;:0,&quot;rounded&quot;:0};rounded=1;labelBackgroundColor=none;" vertex="1" parent="1">
          <mxGeometry x="550" y="40" width="100" height="390" as="geometry" />
        </mxCell>
        <mxCell id="ZwXYjoXHc6uC35f45LxF-4" value="" style="html=1;points=[];perimeter=orthogonalPerimeter;outlineConnect=0;targetShapes=umlLifeline;portConstraint=eastwest;newEdgeStyle={&quot;edgeStyle&quot;:&quot;elbowEdgeStyle&quot;,&quot;elbow&quot;:&quot;vertical&quot;,&quot;curved&quot;:0,&quot;rounded&quot;:0};rounded=1;labelBackgroundColor=none;" vertex="1" parent="ZwXYjoXHc6uC35f45LxF-3">
          <mxGeometry x="45" y="80" width="10" height="270" as="geometry" />
        </mxCell>
        <mxCell id="ZwXYjoXHc6uC35f45LxF-5" value="Database" style="shape=umlLifeline;perimeter=lifelinePerimeter;whiteSpace=wrap;html=1;container=0;dropTarget=0;collapsible=0;recursiveResize=0;outlineConnect=0;portConstraint=eastwest;newEdgeStyle={&quot;edgeStyle&quot;:&quot;elbowEdgeStyle&quot;,&quot;elbow&quot;:&quot;vertical&quot;,&quot;curved&quot;:0,&quot;rounded&quot;:0};rounded=1;labelBackgroundColor=none;" vertex="1" parent="1">
          <mxGeometry x="720" y="40" width="100" height="400" as="geometry" />
        </mxCell>
        <mxCell id="ZwXYjoXHc6uC35f45LxF-6" value="" style="html=1;points=[];perimeter=orthogonalPerimeter;outlineConnect=0;targetShapes=umlLifeline;portConstraint=eastwest;newEdgeStyle={&quot;edgeStyle&quot;:&quot;elbowEdgeStyle&quot;,&quot;elbow&quot;:&quot;vertical&quot;,&quot;curved&quot;:0,&quot;rounded&quot;:0};rounded=1;labelBackgroundColor=none;" vertex="1" parent="ZwXYjoXHc6uC35f45LxF-5">
          <mxGeometry x="45" y="80" width="10" height="270" as="geometry" />
        </mxCell>
        <mxCell id="ZwXYjoXHc6uC35f45LxF-8" value="Recognition failed" style="html=1;verticalAlign=bottom;endArrow=open;dashed=1;endSize=8;edgeStyle=elbowEdgeStyle;elbow=vertical;curved=0;rounded=1;labelBackgroundColor=none;fontColor=default;" edge="1" parent="1">
          <mxGeometry relative="1" as="geometry">
            <mxPoint x="94" y="290" as="targetPoint" />
            <Array as="points">
              <mxPoint x="189" y="290" />
            </Array>
            <mxPoint x="429" y="290" as="sourcePoint" />
          </mxGeometry>
        </mxCell>
        <mxCell id="ZwXYjoXHc6uC35f45LxF-15" value="Request Facial Recognition" style="html=1;verticalAlign=bottom;endArrow=block;edgeStyle=elbowEdgeStyle;elbow=vertical;curved=0;rounded=1;labelBackgroundColor=none;fontColor=default;" edge="1" parent="1">
          <mxGeometry relative="1" as="geometry">
            <mxPoint x="425" y="220" as="sourcePoint" />
            <Array as="points">
              <mxPoint x="510" y="220" />
            </Array>
            <mxPoint x="595" y="220" as="targetPoint" />
          </mxGeometry>
        </mxCell>
        <mxCell id="ZwXYjoXHc6uC35f45LxF-19" value="&lt;p style=&quot;line-height: 80%;&quot;&gt;&lt;font style=&quot;font-size: 10px;&quot;&gt;until recognized&lt;/font&gt;&lt;/p&gt;&lt;p style=&quot;line-height: 80%;&quot;&gt;&lt;font style=&quot;font-size: 10px;&quot;&gt;check face&lt;/font&gt;&lt;/p&gt;" style="rounded=1;whiteSpace=wrap;html=1;absoluteArcSize=1;arcSize=21;strokeWidth=2;sketch=1;hachureGap=4;jiggle=2;curveFitting=1;fontFamily=Architects Daughter;fontSource=https%3A%2F%2Ffonts.googleapis.com%2Fcss%3Ffamily%3DArchitects%2BDaughter;fontSize=20;verticalAlign=top;labelPosition=center;verticalLabelPosition=middle;align=center;spacing=-23;spacingRight=18;" vertex="1" parent="1">
          <mxGeometry x="610" y="220" width="100" height="100" as="geometry" />
        </mxCell>
        <mxCell id="ZwXYjoXHc6uC35f45LxF-20" style="edgeStyle=orthogonalEdgeStyle;rounded=0;sketch=1;hachureGap=4;jiggle=2;curveFitting=1;orthogonalLoop=1;jettySize=auto;html=1;exitX=0;exitY=0.25;exitDx=0;exitDy=0;fontFamily=Architects Daughter;fontSource=https%3A%2F%2Ffonts.googleapis.com%2Fcss%3Ffamily%3DArchitects%2BDaughter;fontSize=16;" edge="1" parent="1" source="ZwXYjoXHc6uC35f45LxF-19" target="ZwXYjoXHc6uC35f45LxF-19">
          <mxGeometry relative="1" as="geometry">
            <Array as="points">
              <mxPoint x="670" y="320" />
              <mxPoint x="670" y="320" />
            </Array>
          </mxGeometry>
        </mxCell>
        <mxCell id="ZwXYjoXHc6uC35f45LxF-23" value="" style="curved=1;endArrow=classic;html=1;rounded=0;sketch=1;hachureGap=4;jiggle=2;curveFitting=1;fontFamily=Architects Daughter;fontSource=https%3A%2F%2Ffonts.googleapis.com%2Fcss%3Ffamily%3DArchitects%2BDaughter;fontSize=16;" edge="1" parent="1">
          <mxGeometry width="50" height="50" relative="1" as="geometry">
            <mxPoint x="620" y="250" as="sourcePoint" />
            <mxPoint x="630" y="300" as="targetPoint" />
            <Array as="points">
              <mxPoint x="630" y="250" />
              <mxPoint x="680" y="250" />
              <mxPoint x="700" y="250" />
              <mxPoint x="700" y="280" />
              <mxPoint x="700" y="310" />
              <mxPoint x="680" y="300" />
            </Array>
          </mxGeometry>
        </mxCell>
        <mxCell id="ZwXYjoXHc6uC35f45LxF-24" value="Recognition Result" style="html=1;verticalAlign=bottom;endArrow=block;edgeStyle=elbowEdgeStyle;elbow=vertical;curved=0;rounded=1;labelBackgroundColor=none;fontColor=default;" edge="1" parent="1">
          <mxGeometry relative="1" as="geometry">
            <mxPoint x="603" y="328" as="sourcePoint" />
            <Array as="points">
              <mxPoint x="518" y="328" />
            </Array>
            <mxPoint x="433" y="328" as="targetPoint" />
          </mxGeometry>
        </mxCell>
        <mxCell id="ZwXYjoXHc6uC35f45LxF-25" value="Update attendance record" style="html=1;verticalAlign=bottom;endArrow=block;edgeStyle=elbowEdgeStyle;elbow=vertical;curved=0;rounded=1;labelBackgroundColor=none;fontColor=default;" edge="1" parent="1" target="ZwXYjoXHc6uC35f45LxF-5">
          <mxGeometry relative="1" as="geometry">
            <mxPoint x="435" y="374" as="sourcePoint" />
            <Array as="points">
              <mxPoint x="520" y="374" />
            </Array>
            <mxPoint x="605" y="374" as="targetPoint" />
          </mxGeometry>
        </mxCell>
      </root>
    </mxGraphModel>
  </diagram>
</mxfile>
